<?xml version="1.0" encoding="utf-8" standalone="no"?>
<!DOCTYPE svg PUBLIC "-//W3C//DTD SVG 1.1//EN"
  "http://www.w3.org/Graphics/SVG/1.1/DTD/svg11.dtd">
<!-- Created with matplotlib (http://matplotlib.sourceforge.net/) -->
<svg height="432pt" version="1.1" viewBox="0 0 576 432" width="576pt" xmlns="http://www.w3.org/2000/svg" xmlns:xlink="http://www.w3.org/1999/xlink">
 <defs>
  <style type="text/css">
*{stroke-linecap:square;stroke-linejoin:round;}
  </style>
 </defs>
 <g id="figure_1">
  <g id="patch_1">
   <path d="
M0 432
L576 432
L576 0
L0 0
z
" style="fill:#ffffff;"/>
  </g>
  <g id="axes_1">
   <g id="patch_2">
    <path d="
M72 388.8
L518.4 388.8
L518.4 43.2
L72 43.2
z
" style="fill:#ffffff;"/>
   </g>
   <g id="line2d_1">
    <path clip-path="url(#p7ff5b81e1d)" d="
M72 129.6
L183.6 388.8
L295.2 302.4
L406.8 43.2
L518.4 216" style="fill:none;stroke:#000000;stroke-width:3;"/>
    <defs>
     <path d="
M0 3
C0.795609 3 1.55874 2.6839 2.12132 2.12132
C2.6839 1.55874 3 0.795609 3 0
C3 -0.795609 2.6839 -1.55874 2.12132 -2.12132
C1.55874 -2.6839 0.795609 -3 0 -3
C-0.795609 -3 -1.55874 -2.6839 -2.12132 -2.12132
C-2.6839 -1.55874 -3 -0.795609 -3 0
C-3 0.795609 -2.6839 1.55874 -2.12132 2.12132
C-1.55874 2.6839 -0.795609 3 0 3
z
" id="m3c29838ab0"/>
    </defs>
    <g clip-path="url(#p7ff5b81e1d)">
     <use style="stroke:#000000;stroke-linecap:butt;stroke-width:0.5;" x="72.0" xlink:href="#m3c29838ab0" y="129.6"/>
     <use style="stroke:#000000;stroke-linecap:butt;stroke-width:0.5;" x="183.6" xlink:href="#m3c29838ab0" y="388.8"/>
     <use style="stroke:#000000;stroke-linecap:butt;stroke-width:0.5;" x="295.2" xlink:href="#m3c29838ab0" y="302.4"/>
     <use style="stroke:#000000;stroke-linecap:butt;stroke-width:0.5;" x="406.8" xlink:href="#m3c29838ab0" y="43.2"/>
     <use style="stroke:#000000;stroke-linecap:butt;stroke-width:0.5;" x="518.4" xlink:href="#m3c29838ab0" y="216.0"/>
    </g>
   </g>
   <g id="matplotlib.axis_1">
    <g id="xtick_1">
     <g id="line2d_2">
      <path clip-path="url(#p7ff5b81e1d)" d="
M72 388.8
L72 43.2" style="fill:none;stroke:#b3b3b3;stroke-width:0.1;"/>
      <defs>
       <path d="
M0 3
C0.795609 3 1.55874 2.6839 2.12132 2.12132
C2.6839 1.55874 3 0.795609 3 0
C3 -0.795609 2.6839 -1.55874 2.12132 -2.12132
C1.55874 -2.6839 0.795609 -3 0 -3
C-0.795609 -3 -1.55874 -2.6839 -2.12132 -2.12132
C-2.6839 -1.55874 -3 -0.795609 -3 0
C-3 0.795609 -2.6839 1.55874 -2.12132 2.12132
C-1.55874 2.6839 -0.795609 3 0 3
z
" id="m3c29838ab0"/>
      </defs>
      <g clip-path="url(#p7ff5b81e1d)">
       <use style="fill:#b3b3b3;stroke:#000000;stroke-linecap:butt;stroke-width:0.5;" x="72.0" xlink:href="#m3c29838ab0" y="388.8"/>
       <use style="fill:#b3b3b3;stroke:#000000;stroke-linecap:butt;stroke-width:0.5;" x="72.0" xlink:href="#m3c29838ab0" y="43.2"/>
      </g>
     </g>
     <g id="line2d_3">
      <defs>
       <path d="
M0 0
L0 -1" id="m919a2de3a6"/>
      </defs>
      <g>
       <use style="stroke:#000000;stroke-linecap:butt;stroke-width:0.5;" x="72.0" xlink:href="#m919a2de3a6" y="388.8"/>
      </g>
     </g>
     <g id="line2d_4">
      <defs>
       <path d="
M0 0
L0 1" id="mb07ff4575b"/>
      </defs>
      <g>
       <use style="stroke:#000000;stroke-linecap:butt;stroke-width:0.5;" x="72.0" xlink:href="#mb07ff4575b" y="43.2"/>
      </g>
     </g>
     <g id="text_1">
      <!-- 0 -->
      <defs>
       <path d="
M31.7812 66.4062
Q24.1719 66.4062 20.3281 58.9062
Q16.5 51.4219 16.5 36.375
Q16.5 21.3906 20.3281 13.8906
Q24.1719 6.39062 31.7812 6.39062
Q39.4531 6.39062 43.2812 13.8906
Q47.125 21.3906 47.125 36.375
Q47.125 51.4219 43.2812 58.9062
Q39.4531 66.4062 31.7812 66.4062
M31.7812 74.2188
Q44.0469 74.2188 50.5156 64.5156
Q56.9844 54.8281 56.9844 36.375
Q56.9844 17.9688 50.5156 8.26562
Q44.0469 -1.42188 31.7812 -1.42188
Q19.5312 -1.42188 13.0625 8.26562
Q6.59375 17.9688 6.59375 36.375
Q6.59375 54.8281 13.0625 64.5156
Q19.5312 74.2188 31.7812 74.2188" id="BitstreamVeraSans-Roman-30"/>
      </defs>
      <g transform="translate(68.47265625 403.190625)scale(0.14 -0.14)">
       <use xlink:href="#BitstreamVeraSans-Roman-30"/>
      </g>
     </g>
    </g>
    <g id="xtick_2">
     <g id="line2d_5">
      <path clip-path="url(#p7ff5b81e1d)" d="
M183.6 388.8
L183.6 43.2" style="fill:none;stroke:#b3b3b3;stroke-width:0.1;"/>
      <defs>
       <path d="
M0 3
C0.795609 3 1.55874 2.6839 2.12132 2.12132
C2.6839 1.55874 3 0.795609 3 0
C3 -0.795609 2.6839 -1.55874 2.12132 -2.12132
C1.55874 -2.6839 0.795609 -3 0 -3
C-0.795609 -3 -1.55874 -2.6839 -2.12132 -2.12132
C-2.6839 -1.55874 -3 -0.795609 -3 0
C-3 0.795609 -2.6839 1.55874 -2.12132 2.12132
C-1.55874 2.6839 -0.795609 3 0 3
z
" id="m3c29838ab0"/>
      </defs>
      <g clip-path="url(#p7ff5b81e1d)">
       <use style="fill:#b3b3b3;stroke:#000000;stroke-linecap:butt;stroke-width:0.5;" x="183.6" xlink:href="#m3c29838ab0" y="388.8"/>
       <use style="fill:#b3b3b3;stroke:#000000;stroke-linecap:butt;stroke-width:0.5;" x="183.6" xlink:href="#m3c29838ab0" y="43.2"/>
      </g>
     </g>
     <g id="line2d_6">
      <defs>
       <path d="
M0 0
L0 -1" id="m919a2de3a6"/>
      </defs>
      <g>
       <use style="stroke:#000000;stroke-linecap:butt;stroke-width:0.5;" x="183.6" xlink:href="#m919a2de3a6" y="388.8"/>
      </g>
     </g>
     <g id="line2d_7">
      <defs>
       <path d="
M0 0
L0 1" id="mb07ff4575b"/>
      </defs>
      <g>
       <use style="stroke:#000000;stroke-linecap:butt;stroke-width:0.5;" x="183.6" xlink:href="#mb07ff4575b" y="43.2"/>
      </g>
     </g>
     <g id="text_2">
      <!-- 1 -->
      <defs>
       <path d="
M12.4062 8.29688
L28.5156 8.29688
L28.5156 63.9219
L10.9844 60.4062
L10.9844 69.3906
L28.4219 72.9062
L38.2812 72.9062
L38.2812 8.29688
L54.3906 8.29688
L54.3906 0
L12.4062 0
z
" id="BitstreamVeraSans-Roman-31"/>
      </defs>
      <g transform="translate(180.5615625 403.006875)scale(0.14 -0.14)">
       <use xlink:href="#BitstreamVeraSans-Roman-31"/>
      </g>
     </g>
    </g>
    <g id="xtick_3">
     <g id="line2d_8">
      <path clip-path="url(#p7ff5b81e1d)" d="
M295.2 388.8
L295.2 43.2" style="fill:none;stroke:#b3b3b3;stroke-width:0.1;"/>
      <defs>
       <path d="
M0 3
C0.795609 3 1.55874 2.6839 2.12132 2.12132
C2.6839 1.55874 3 0.795609 3 0
C3 -0.795609 2.6839 -1.55874 2.12132 -2.12132
C1.55874 -2.6839 0.795609 -3 0 -3
C-0.795609 -3 -1.55874 -2.6839 -2.12132 -2.12132
C-2.6839 -1.55874 -3 -0.795609 -3 0
C-3 0.795609 -2.6839 1.55874 -2.12132 2.12132
C-1.55874 2.6839 -0.795609 3 0 3
z
" id="m3c29838ab0"/>
      </defs>
      <g clip-path="url(#p7ff5b81e1d)">
       <use style="fill:#b3b3b3;stroke:#000000;stroke-linecap:butt;stroke-width:0.5;" x="295.2" xlink:href="#m3c29838ab0" y="388.8"/>
       <use style="fill:#b3b3b3;stroke:#000000;stroke-linecap:butt;stroke-width:0.5;" x="295.2" xlink:href="#m3c29838ab0" y="43.2"/>
      </g>
     </g>
     <g id="line2d_9">
      <defs>
       <path d="
M0 0
L0 -1" id="m919a2de3a6"/>
      </defs>
      <g>
       <use style="stroke:#000000;stroke-linecap:butt;stroke-width:0.5;" x="295.2" xlink:href="#m919a2de3a6" y="388.8"/>
      </g>
     </g>
     <g id="line2d_10">
      <defs>
       <path d="
M0 0
L0 1" id="mb07ff4575b"/>
      </defs>
      <g>
       <use style="stroke:#000000;stroke-linecap:butt;stroke-width:0.5;" x="295.2" xlink:href="#mb07ff4575b" y="43.2"/>
      </g>
     </g>
     <g id="text_3">
      <!-- 2 -->
      <defs>
       <path d="
M19.1875 8.29688
L53.6094 8.29688
L53.6094 0
L7.32812 0
L7.32812 8.29688
Q12.9375 14.1094 22.625 23.8906
Q32.3281 33.6875 34.8125 36.5312
Q39.5469 41.8438 41.4219 45.5312
Q43.3125 49.2188 43.3125 52.7812
Q43.3125 58.5938 39.2344 62.25
Q35.1562 65.9219 28.6094 65.9219
Q23.9688 65.9219 18.8125 64.3125
Q13.6719 62.7031 7.8125 59.4219
L7.8125 69.3906
Q13.7656 71.7812 18.9375 73
Q24.125 74.2188 28.4219 74.2188
Q39.75 74.2188 46.4844 68.5469
Q53.2188 62.8906 53.2188 53.4219
Q53.2188 48.9219 51.5312 44.8906
Q49.8594 40.875 45.4062 35.4062
Q44.1875 33.9844 37.6406 27.2188
Q31.1094 20.4531 19.1875 8.29688" id="BitstreamVeraSans-Roman-32"/>
      </defs>
      <g transform="translate(291.9603125 403.190625)scale(0.14 -0.14)">
       <use xlink:href="#BitstreamVeraSans-Roman-32"/>
      </g>
     </g>
    </g>
    <g id="xtick_4">
     <g id="line2d_11">
      <path clip-path="url(#p7ff5b81e1d)" d="
M406.8 388.8
L406.8 43.2" style="fill:none;stroke:#b3b3b3;stroke-width:0.1;"/>
      <defs>
       <path d="
M0 3
C0.795609 3 1.55874 2.6839 2.12132 2.12132
C2.6839 1.55874 3 0.795609 3 0
C3 -0.795609 2.6839 -1.55874 2.12132 -2.12132
C1.55874 -2.6839 0.795609 -3 0 -3
C-0.795609 -3 -1.55874 -2.6839 -2.12132 -2.12132
C-2.6839 -1.55874 -3 -0.795609 -3 0
C-3 0.795609 -2.6839 1.55874 -2.12132 2.12132
C-1.55874 2.6839 -0.795609 3 0 3
z
" id="m3c29838ab0"/>
      </defs>
      <g clip-path="url(#p7ff5b81e1d)">
       <use style="fill:#b3b3b3;stroke:#000000;stroke-linecap:butt;stroke-width:0.5;" x="406.8" xlink:href="#m3c29838ab0" y="388.8"/>
       <use style="fill:#b3b3b3;stroke:#000000;stroke-linecap:butt;stroke-width:0.5;" x="406.8" xlink:href="#m3c29838ab0" y="43.2"/>
      </g>
     </g>
     <g id="line2d_12">
      <defs>
       <path d="
M0 0
L0 -1" id="m919a2de3a6"/>
      </defs>
      <g>
       <use style="stroke:#000000;stroke-linecap:butt;stroke-width:0.5;" x="406.8" xlink:href="#m919a2de3a6" y="388.8"/>
      </g>
     </g>
     <g id="line2d_13">
      <defs>
       <path d="
M0 0
L0 1" id="mb07ff4575b"/>
      </defs>
      <g>
       <use style="stroke:#000000;stroke-linecap:butt;stroke-width:0.5;" x="406.8" xlink:href="#mb07ff4575b" y="43.2"/>
      </g>
     </g>
     <g id="text_4">
      <!-- 3 -->
      <defs>
       <path d="
M40.5781 39.3125
Q47.6562 37.7969 51.625 33
Q55.6094 28.2188 55.6094 21.1875
Q55.6094 10.4062 48.1875 4.48438
Q40.7656 -1.42188 27.0938 -1.42188
Q22.5156 -1.42188 17.6562 -0.515625
Q12.7969 0.390625 7.625 2.20312
L7.625 11.7188
Q11.7188 9.32812 16.5938 8.10938
Q21.4844 6.89062 26.8125 6.89062
Q36.0781 6.89062 40.9375 10.5469
Q45.7969 14.2031 45.7969 21.1875
Q45.7969 27.6406 41.2812 31.2656
Q36.7656 34.9062 28.7188 34.9062
L20.2188 34.9062
L20.2188 43.0156
L29.1094 43.0156
Q36.375 43.0156 40.2344 45.9219
Q44.0938 48.8281 44.0938 54.2969
Q44.0938 59.9062 40.1094 62.9062
Q36.1406 65.9219 28.7188 65.9219
Q24.6562 65.9219 20.0156 65.0312
Q15.375 64.1562 9.8125 62.3125
L9.8125 71.0938
Q15.4375 72.6562 20.3438 73.4375
Q25.25 74.2188 29.5938 74.2188
Q40.8281 74.2188 47.3594 69.1094
Q53.9062 64.0156 53.9062 55.3281
Q53.9062 49.2656 50.4375 45.0938
Q46.9688 40.9219 40.5781 39.3125" id="BitstreamVeraSans-Roman-33"/>
      </defs>
      <g transform="translate(403.44109375 403.190625)scale(0.14 -0.14)">
       <use xlink:href="#BitstreamVeraSans-Roman-33"/>
      </g>
     </g>
    </g>
    <g id="xtick_5">
     <g id="line2d_14">
      <path clip-path="url(#p7ff5b81e1d)" d="
M518.4 388.8
L518.4 43.2" style="fill:none;stroke:#b3b3b3;stroke-width:0.1;"/>
      <defs>
       <path d="
M0 3
C0.795609 3 1.55874 2.6839 2.12132 2.12132
C2.6839 1.55874 3 0.795609 3 0
C3 -0.795609 2.6839 -1.55874 2.12132 -2.12132
C1.55874 -2.6839 0.795609 -3 0 -3
C-0.795609 -3 -1.55874 -2.6839 -2.12132 -2.12132
C-2.6839 -1.55874 -3 -0.795609 -3 0
C-3 0.795609 -2.6839 1.55874 -2.12132 2.12132
C-1.55874 2.6839 -0.795609 3 0 3
z
" id="m3c29838ab0"/>
      </defs>
      <g clip-path="url(#p7ff5b81e1d)">
       <use style="fill:#b3b3b3;stroke:#000000;stroke-linecap:butt;stroke-width:0.5;" x="518.4" xlink:href="#m3c29838ab0" y="388.8"/>
       <use style="fill:#b3b3b3;stroke:#000000;stroke-linecap:butt;stroke-width:0.5;" x="518.4" xlink:href="#m3c29838ab0" y="43.2"/>
      </g>
     </g>
     <g id="line2d_15">
      <defs>
       <path d="
M0 0
L0 -1" id="m919a2de3a6"/>
      </defs>
      <g>
       <use style="stroke:#000000;stroke-linecap:butt;stroke-width:0.5;" x="518.4" xlink:href="#m919a2de3a6" y="388.8"/>
      </g>
     </g>
     <g id="line2d_16">
      <defs>
       <path d="
M0 0
L0 1" id="mb07ff4575b"/>
      </defs>
      <g>
       <use style="stroke:#000000;stroke-linecap:butt;stroke-width:0.5;" x="518.4" xlink:href="#mb07ff4575b" y="43.2"/>
      </g>
     </g>
     <g id="text_5">
      <!-- 4 -->
      <defs>
       <path d="
M37.7969 64.3125
L12.8906 25.3906
L37.7969 25.3906
z

M35.2031 72.9062
L47.6094 72.9062
L47.6094 25.3906
L58.0156 25.3906
L58.0156 17.1875
L47.6094 17.1875
L47.6094 0
L37.7969 0
L37.7969 17.1875
L4.89062 17.1875
L4.89062 26.7031
z
" id="BitstreamVeraSans-Roman-34"/>
      </defs>
      <g transform="translate(514.68125 403.006875)scale(0.14 -0.14)">
       <use xlink:href="#BitstreamVeraSans-Roman-34"/>
      </g>
     </g>
    </g>
    <g id="text_6">
     <!-- c-point position -->
     <defs>
      <path id="BitstreamVeraSans-Roman-20"/>
      <path d="
M54.8906 33.0156
L54.8906 0
L45.9062 0
L45.9062 32.7188
Q45.9062 40.4844 42.875 44.3281
Q39.8438 48.1875 33.7969 48.1875
Q26.5156 48.1875 22.3125 43.5469
Q18.1094 38.9219 18.1094 30.9062
L18.1094 0
L9.07812 0
L9.07812 54.6875
L18.1094 54.6875
L18.1094 46.1875
Q21.3438 51.125 25.7031 53.5625
Q30.0781 56 35.7969 56
Q45.2188 56 50.0469 50.1719
Q54.8906 44.3438 54.8906 33.0156" id="BitstreamVeraSans-Roman-6e"/>
      <path d="
M30.6094 48.3906
Q23.3906 48.3906 19.1875 42.75
Q14.9844 37.1094 14.9844 27.2969
Q14.9844 17.4844 19.1562 11.8438
Q23.3438 6.20312 30.6094 6.20312
Q37.7969 6.20312 41.9844 11.8594
Q46.1875 17.5312 46.1875 27.2969
Q46.1875 37.0156 41.9844 42.7031
Q37.7969 48.3906 30.6094 48.3906
M30.6094 56
Q42.3281 56 49.0156 48.375
Q55.7188 40.7656 55.7188 27.2969
Q55.7188 13.875 49.0156 6.21875
Q42.3281 -1.42188 30.6094 -1.42188
Q18.8438 -1.42188 12.1719 6.21875
Q5.51562 13.875 5.51562 27.2969
Q5.51562 40.7656 12.1719 48.375
Q18.8438 56 30.6094 56" id="BitstreamVeraSans-Roman-6f"/>
      <path d="
M9.42188 54.6875
L18.4062 54.6875
L18.4062 0
L9.42188 0
z

M9.42188 75.9844
L18.4062 75.9844
L18.4062 64.5938
L9.42188 64.5938
z
" id="BitstreamVeraSans-Roman-69"/>
      <path d="
M4.89062 31.3906
L31.2031 31.3906
L31.2031 23.3906
L4.89062 23.3906
z
" id="BitstreamVeraSans-Roman-2d"/>
      <path d="
M48.7812 52.5938
L48.7812 44.1875
Q44.9688 46.2969 41.1406 47.3438
Q37.3125 48.3906 33.4062 48.3906
Q24.6562 48.3906 19.8125 42.8438
Q14.9844 37.3125 14.9844 27.2969
Q14.9844 17.2812 19.8125 11.7344
Q24.6562 6.20312 33.4062 6.20312
Q37.3125 6.20312 41.1406 7.25
Q44.9688 8.29688 48.7812 10.4062
L48.7812 2.09375
Q45.0156 0.34375 40.9844 -0.53125
Q36.9688 -1.42188 32.4219 -1.42188
Q20.0625 -1.42188 12.7812 6.34375
Q5.51562 14.1094 5.51562 27.2969
Q5.51562 40.6719 12.8594 48.3281
Q20.2188 56 33.0156 56
Q37.1562 56 41.1094 55.1406
Q45.0625 54.2969 48.7812 52.5938" id="BitstreamVeraSans-Roman-63"/>
      <path d="
M18.3125 70.2188
L18.3125 54.6875
L36.8125 54.6875
L36.8125 47.7031
L18.3125 47.7031
L18.3125 18.0156
Q18.3125 11.3281 20.1406 9.42188
Q21.9688 7.51562 27.5938 7.51562
L36.8125 7.51562
L36.8125 0
L27.5938 0
Q17.1875 0 13.2344 3.875
Q9.28125 7.76562 9.28125 18.0156
L9.28125 47.7031
L2.6875 47.7031
L2.6875 54.6875
L9.28125 54.6875
L9.28125 70.2188
z
" id="BitstreamVeraSans-Roman-74"/>
      <path d="
M44.2812 53.0781
L44.2812 44.5781
Q40.4844 46.5312 36.375 47.5
Q32.2812 48.4844 27.875 48.4844
Q21.1875 48.4844 17.8438 46.4375
Q14.5 44.3906 14.5 40.2812
Q14.5 37.1562 16.8906 35.375
Q19.2812 33.5938 26.5156 31.9844
L29.5938 31.2969
Q39.1562 29.25 43.1875 25.5156
Q47.2188 21.7812 47.2188 15.0938
Q47.2188 7.46875 41.1875 3.01562
Q35.1562 -1.42188 24.6094 -1.42188
Q20.2188 -1.42188 15.4531 -0.5625
Q10.6875 0.296875 5.42188 2
L5.42188 11.2812
Q10.4062 8.6875 15.2344 7.39062
Q20.0625 6.10938 24.8125 6.10938
Q31.1562 6.10938 34.5625 8.28125
Q37.9844 10.4531 37.9844 14.4062
Q37.9844 18.0625 35.5156 20.0156
Q33.0625 21.9688 24.7031 23.7812
L21.5781 24.5156
Q13.2344 26.2656 9.51562 29.9062
Q5.8125 33.5469 5.8125 39.8906
Q5.8125 47.6094 11.2812 51.7969
Q16.75 56 26.8125 56
Q31.7812 56 36.1719 55.2656
Q40.5781 54.5469 44.2812 53.0781" id="BitstreamVeraSans-Roman-73"/>
      <path d="
M18.1094 8.20312
L18.1094 -20.7969
L9.07812 -20.7969
L9.07812 54.6875
L18.1094 54.6875
L18.1094 46.3906
Q20.9531 51.2656 25.2656 53.625
Q29.5938 56 35.5938 56
Q45.5625 56 51.7812 48.0938
Q58.0156 40.1875 58.0156 27.2969
Q58.0156 14.4062 51.7812 6.48438
Q45.5625 -1.42188 35.5938 -1.42188
Q29.5938 -1.42188 25.2656 0.953125
Q20.9531 3.32812 18.1094 8.20312
M48.6875 27.2969
Q48.6875 37.2031 44.6094 42.8438
Q40.5312 48.4844 33.4062 48.4844
Q26.2656 48.4844 22.1875 42.8438
Q18.1094 37.2031 18.1094 27.2969
Q18.1094 17.3906 22.1875 11.75
Q26.2656 6.10938 33.4062 6.10938
Q40.5312 6.10938 44.6094 11.75
Q48.6875 17.3906 48.6875 27.2969" id="BitstreamVeraSans-Roman-70"/>
     </defs>
     <g transform="translate(241.61609375 419.0275)scale(0.14 -0.14)">
      <use xlink:href="#BitstreamVeraSans-Roman-63"/>
      <use x="54.98046875" xlink:href="#BitstreamVeraSans-Roman-2d"/>
      <use x="91.064453125" xlink:href="#BitstreamVeraSans-Roman-70"/>
      <use x="154.541015625" xlink:href="#BitstreamVeraSans-Roman-6f"/>
      <use x="215.72265625" xlink:href="#BitstreamVeraSans-Roman-69"/>
      <use x="243.505859375" xlink:href="#BitstreamVeraSans-Roman-6e"/>
      <use x="306.884765625" xlink:href="#BitstreamVeraSans-Roman-74"/>
      <use x="346.09375" xlink:href="#BitstreamVeraSans-Roman-20"/>
      <use x="377.880859375" xlink:href="#BitstreamVeraSans-Roman-70"/>
      <use x="441.357421875" xlink:href="#BitstreamVeraSans-Roman-6f"/>
      <use x="502.5390625" xlink:href="#BitstreamVeraSans-Roman-73"/>
      <use x="554.638671875" xlink:href="#BitstreamVeraSans-Roman-69"/>
      <use x="582.421875" xlink:href="#BitstreamVeraSans-Roman-74"/>
      <use x="621.630859375" xlink:href="#BitstreamVeraSans-Roman-69"/>
      <use x="649.4140625" xlink:href="#BitstreamVeraSans-Roman-6f"/>
      <use x="710.595703125" xlink:href="#BitstreamVeraSans-Roman-6e"/>
     </g>
    </g>
   </g>
   <g id="matplotlib.axis_2">
    <g id="ytick_1">
     <g id="line2d_17">
      <path clip-path="url(#p7ff5b81e1d)" d="
M72 388.8
L518.4 388.8" style="fill:none;stroke:#b3b3b3;stroke-width:0.1;"/>
      <defs>
       <path d="
M0 3
C0.795609 3 1.55874 2.6839 2.12132 2.12132
C2.6839 1.55874 3 0.795609 3 0
C3 -0.795609 2.6839 -1.55874 2.12132 -2.12132
C1.55874 -2.6839 0.795609 -3 0 -3
C-0.795609 -3 -1.55874 -2.6839 -2.12132 -2.12132
C-2.6839 -1.55874 -3 -0.795609 -3 0
C-3 0.795609 -2.6839 1.55874 -2.12132 2.12132
C-1.55874 2.6839 -0.795609 3 0 3
z
" id="m3c29838ab0"/>
      </defs>
      <g clip-path="url(#p7ff5b81e1d)">
       <use style="fill:#b3b3b3;stroke:#000000;stroke-linecap:butt;stroke-width:0.5;" x="72.0" xlink:href="#m3c29838ab0" y="388.8"/>
       <use style="fill:#b3b3b3;stroke:#000000;stroke-linecap:butt;stroke-width:0.5;" x="518.4" xlink:href="#m3c29838ab0" y="388.8"/>
      </g>
     </g>
     <g id="line2d_18">
      <defs>
       <path d="
M0 0
L4 0" id="ma900f982a3"/>
      </defs>
      <g>
       <use style="stroke:#000000;stroke-linecap:butt;stroke-width:0.5;" x="72.0" xlink:href="#ma900f982a3" y="388.8"/>
      </g>
     </g>
     <g id="line2d_19">
      <defs>
       <path d="
M0 0
L-4 0" id="m1166d25b89"/>
      </defs>
      <g>
       <use style="stroke:#000000;stroke-linecap:butt;stroke-width:0.5;" x="518.4" xlink:href="#m1166d25b89" y="388.8"/>
      </g>
     </g>
     <g id="text_7">
      <!-- 0 -->
      <g transform="translate(60.9453125 393.89578125)scale(0.14 -0.14)">
       <use xlink:href="#BitstreamVeraSans-Roman-30"/>
      </g>
     </g>
    </g>
    <g id="ytick_2">
     <g id="line2d_20">
      <path clip-path="url(#p7ff5b81e1d)" d="
M72 302.4
L518.4 302.4" style="fill:none;stroke:#b3b3b3;stroke-width:0.1;"/>
      <defs>
       <path d="
M0 3
C0.795609 3 1.55874 2.6839 2.12132 2.12132
C2.6839 1.55874 3 0.795609 3 0
C3 -0.795609 2.6839 -1.55874 2.12132 -2.12132
C1.55874 -2.6839 0.795609 -3 0 -3
C-0.795609 -3 -1.55874 -2.6839 -2.12132 -2.12132
C-2.6839 -1.55874 -3 -0.795609 -3 0
C-3 0.795609 -2.6839 1.55874 -2.12132 2.12132
C-1.55874 2.6839 -0.795609 3 0 3
z
" id="m3c29838ab0"/>
      </defs>
      <g clip-path="url(#p7ff5b81e1d)">
       <use style="fill:#b3b3b3;stroke:#000000;stroke-linecap:butt;stroke-width:0.5;" x="72.0" xlink:href="#m3c29838ab0" y="302.4"/>
       <use style="fill:#b3b3b3;stroke:#000000;stroke-linecap:butt;stroke-width:0.5;" x="518.4" xlink:href="#m3c29838ab0" y="302.4"/>
      </g>
     </g>
     <g id="line2d_21">
      <defs>
       <path d="
M0 0
L4 0" id="ma900f982a3"/>
      </defs>
      <g>
       <use style="stroke:#000000;stroke-linecap:butt;stroke-width:0.5;" x="72.0" xlink:href="#ma900f982a3" y="302.4"/>
      </g>
     </g>
     <g id="line2d_22">
      <defs>
       <path d="
M0 0
L-4 0" id="m1166d25b89"/>
      </defs>
      <g>
       <use style="stroke:#000000;stroke-linecap:butt;stroke-width:0.5;" x="518.4" xlink:href="#m1166d25b89" y="302.4"/>
      </g>
     </g>
     <g id="text_8">
      <!-- 1 -->
      <g transform="translate(61.923125 307.5034375)scale(0.14 -0.14)">
       <use xlink:href="#BitstreamVeraSans-Roman-31"/>
      </g>
     </g>
    </g>
    <g id="ytick_3">
     <g id="line2d_23">
      <path clip-path="url(#p7ff5b81e1d)" d="
M72 216
L518.4 216" style="fill:none;stroke:#b3b3b3;stroke-width:0.1;"/>
      <defs>
       <path d="
M0 3
C0.795609 3 1.55874 2.6839 2.12132 2.12132
C2.6839 1.55874 3 0.795609 3 0
C3 -0.795609 2.6839 -1.55874 2.12132 -2.12132
C1.55874 -2.6839 0.795609 -3 0 -3
C-0.795609 -3 -1.55874 -2.6839 -2.12132 -2.12132
C-2.6839 -1.55874 -3 -0.795609 -3 0
C-3 0.795609 -2.6839 1.55874 -2.12132 2.12132
C-1.55874 2.6839 -0.795609 3 0 3
z
" id="m3c29838ab0"/>
      </defs>
      <g clip-path="url(#p7ff5b81e1d)">
       <use style="fill:#b3b3b3;stroke:#000000;stroke-linecap:butt;stroke-width:0.5;" x="72.0" xlink:href="#m3c29838ab0" y="216.0"/>
       <use style="fill:#b3b3b3;stroke:#000000;stroke-linecap:butt;stroke-width:0.5;" x="518.4" xlink:href="#m3c29838ab0" y="216.0"/>
      </g>
     </g>
     <g id="line2d_24">
      <defs>
       <path d="
M0 0
L4 0" id="ma900f982a3"/>
      </defs>
      <g>
       <use style="stroke:#000000;stroke-linecap:butt;stroke-width:0.5;" x="72.0" xlink:href="#ma900f982a3" y="216.0"/>
      </g>
     </g>
     <g id="line2d_25">
      <defs>
       <path d="
M0 0
L-4 0" id="m1166d25b89"/>
      </defs>
      <g>
       <use style="stroke:#000000;stroke-linecap:butt;stroke-width:0.5;" x="518.4" xlink:href="#m1166d25b89" y="216.0"/>
      </g>
     </g>
     <g id="text_9">
      <!-- 2 -->
      <g transform="translate(61.520625 221.1953125)scale(0.14 -0.14)">
       <use xlink:href="#BitstreamVeraSans-Roman-32"/>
      </g>
     </g>
    </g>
    <g id="ytick_4">
     <g id="line2d_26">
      <path clip-path="url(#p7ff5b81e1d)" d="
M72 129.6
L518.4 129.6" style="fill:none;stroke:#b3b3b3;stroke-width:0.1;"/>
      <defs>
       <path d="
M0 3
C0.795609 3 1.55874 2.6839 2.12132 2.12132
C2.6839 1.55874 3 0.795609 3 0
C3 -0.795609 2.6839 -1.55874 2.12132 -2.12132
C1.55874 -2.6839 0.795609 -3 0 -3
C-0.795609 -3 -1.55874 -2.6839 -2.12132 -2.12132
C-2.6839 -1.55874 -3 -0.795609 -3 0
C-3 0.795609 -2.6839 1.55874 -2.12132 2.12132
C-1.55874 2.6839 -0.795609 3 0 3
z
" id="m3c29838ab0"/>
      </defs>
      <g clip-path="url(#p7ff5b81e1d)">
       <use style="fill:#b3b3b3;stroke:#000000;stroke-linecap:butt;stroke-width:0.5;" x="72.0" xlink:href="#m3c29838ab0" y="129.6"/>
       <use style="fill:#b3b3b3;stroke:#000000;stroke-linecap:butt;stroke-width:0.5;" x="518.4" xlink:href="#m3c29838ab0" y="129.6"/>
      </g>
     </g>
     <g id="line2d_27">
      <defs>
       <path d="
M0 0
L4 0" id="ma900f982a3"/>
      </defs>
      <g>
       <use style="stroke:#000000;stroke-linecap:butt;stroke-width:0.5;" x="72.0" xlink:href="#ma900f982a3" y="129.6"/>
      </g>
     </g>
     <g id="line2d_28">
      <defs>
       <path d="
M0 0
L-4 0" id="m1166d25b89"/>
      </defs>
      <g>
       <use style="stroke:#000000;stroke-linecap:butt;stroke-width:0.5;" x="518.4" xlink:href="#m1166d25b89" y="129.6"/>
      </g>
     </g>
     <g id="text_10">
      <!-- 3 -->
      <g transform="translate(61.2821875 134.69578125)scale(0.14 -0.14)">
       <use xlink:href="#BitstreamVeraSans-Roman-33"/>
      </g>
     </g>
    </g>
    <g id="ytick_5">
     <g id="line2d_29">
      <path clip-path="url(#p7ff5b81e1d)" d="
M72 43.2
L518.4 43.2" style="fill:none;stroke:#b3b3b3;stroke-width:0.1;"/>
      <defs>
       <path d="
M0 3
C0.795609 3 1.55874 2.6839 2.12132 2.12132
C2.6839 1.55874 3 0.795609 3 0
C3 -0.795609 2.6839 -1.55874 2.12132 -2.12132
C1.55874 -2.6839 0.795609 -3 0 -3
C-0.795609 -3 -1.55874 -2.6839 -2.12132 -2.12132
C-2.6839 -1.55874 -3 -0.795609 -3 0
C-3 0.795609 -2.6839 1.55874 -2.12132 2.12132
C-1.55874 2.6839 -0.795609 3 0 3
z
" id="m3c29838ab0"/>
      </defs>
      <g clip-path="url(#p7ff5b81e1d)">
       <use style="fill:#b3b3b3;stroke:#000000;stroke-linecap:butt;stroke-width:0.5;" x="72.0" xlink:href="#m3c29838ab0" y="43.2"/>
       <use style="fill:#b3b3b3;stroke:#000000;stroke-linecap:butt;stroke-width:0.5;" x="518.4" xlink:href="#m3c29838ab0" y="43.2"/>
      </g>
     </g>
     <g id="line2d_30">
      <defs>
       <path d="
M0 0
L4 0" id="ma900f982a3"/>
      </defs>
      <g>
       <use style="stroke:#000000;stroke-linecap:butt;stroke-width:0.5;" x="72.0" xlink:href="#ma900f982a3" y="43.2"/>
      </g>
     </g>
     <g id="line2d_31">
      <defs>
       <path d="
M0 0
L-4 0" id="m1166d25b89"/>
      </defs>
      <g>
       <use style="stroke:#000000;stroke-linecap:butt;stroke-width:0.5;" x="518.4" xlink:href="#m1166d25b89" y="43.2"/>
      </g>
     </g>
     <g id="text_11">
      <!-- 4 -->
      <g transform="translate(60.5625 48.3034375)scale(0.14 -0.14)">
       <use xlink:href="#BitstreamVeraSans-Roman-34"/>
      </g>
     </g>
    </g>
    <g id="text_12">
     <!-- c-point value -->
     <defs>
      <path d="
M2.98438 54.6875
L12.5 54.6875
L29.5938 8.79688
L46.6875 54.6875
L56.2031 54.6875
L35.6875 0
L23.4844 0
z
" id="BitstreamVeraSans-Roman-76"/>
      <path d="
M56.2031 29.5938
L56.2031 25.2031
L14.8906 25.2031
Q15.4844 15.9219 20.4844 11.0625
Q25.4844 6.20312 34.4219 6.20312
Q39.5938 6.20312 44.4531 7.46875
Q49.3125 8.73438 54.1094 11.2812
L54.1094 2.78125
Q49.2656 0.734375 44.1875 -0.34375
Q39.1094 -1.42188 33.8906 -1.42188
Q20.7969 -1.42188 13.1562 6.1875
Q5.51562 13.8125 5.51562 26.8125
Q5.51562 40.2344 12.7656 48.1094
Q20.0156 56 32.3281 56
Q43.3594 56 49.7812 48.8906
Q56.2031 41.7969 56.2031 29.5938
M47.2188 32.2344
Q47.125 39.5938 43.0938 43.9844
Q39.0625 48.3906 32.4219 48.3906
Q24.9062 48.3906 20.3906 44.1406
Q15.875 39.8906 15.1875 32.1719
z
" id="BitstreamVeraSans-Roman-65"/>
      <path d="
M8.5 21.5781
L8.5 54.6875
L17.4844 54.6875
L17.4844 21.9219
Q17.4844 14.1562 20.5 10.2656
Q23.5312 6.39062 29.5938 6.39062
Q36.8594 6.39062 41.0781 11.0312
Q45.3125 15.6719 45.3125 23.6875
L45.3125 54.6875
L54.2969 54.6875
L54.2969 0
L45.3125 0
L45.3125 8.40625
Q42.0469 3.42188 37.7188 1
Q33.4062 -1.42188 27.6875 -1.42188
Q18.2656 -1.42188 13.375 4.4375
Q8.5 10.2969 8.5 21.5781" id="BitstreamVeraSans-Roman-75"/>
      <path d="
M34.2812 27.4844
Q23.3906 27.4844 19.1875 25
Q14.9844 22.5156 14.9844 16.5
Q14.9844 11.7188 18.1406 8.90625
Q21.2969 6.10938 26.7031 6.10938
Q34.1875 6.10938 38.7031 11.4062
Q43.2188 16.7031 43.2188 25.4844
L43.2188 27.4844
z

M52.2031 31.2031
L52.2031 0
L43.2188 0
L43.2188 8.29688
Q40.1406 3.32812 35.5469 0.953125
Q30.9531 -1.42188 24.3125 -1.42188
Q15.9219 -1.42188 10.9531 3.29688
Q6 8.01562 6 15.9219
Q6 25.1406 12.1719 29.8281
Q18.3594 34.5156 30.6094 34.5156
L43.2188 34.5156
L43.2188 35.4062
Q43.2188 41.6094 39.1406 45
Q35.0625 48.3906 27.6875 48.3906
Q23 48.3906 18.5469 47.2656
Q14.1094 46.1406 10.0156 43.8906
L10.0156 52.2031
Q14.9375 54.1094 19.5781 55.0469
Q24.2188 56 28.6094 56
Q40.4844 56 46.3438 49.8438
Q52.2031 43.7031 52.2031 31.2031" id="BitstreamVeraSans-Roman-61"/>
      <path d="
M9.42188 75.9844
L18.4062 75.9844
L18.4062 0
L9.42188 0
z
" id="BitstreamVeraSans-Roman-6c"/>
     </defs>
     <g transform="translate(55.5625 258.28765625)rotate(-90.0)scale(0.14 -0.14)">
      <use xlink:href="#BitstreamVeraSans-Roman-63"/>
      <use x="54.98046875" xlink:href="#BitstreamVeraSans-Roman-2d"/>
      <use x="91.064453125" xlink:href="#BitstreamVeraSans-Roman-70"/>
      <use x="154.541015625" xlink:href="#BitstreamVeraSans-Roman-6f"/>
      <use x="215.72265625" xlink:href="#BitstreamVeraSans-Roman-69"/>
      <use x="243.505859375" xlink:href="#BitstreamVeraSans-Roman-6e"/>
      <use x="306.884765625" xlink:href="#BitstreamVeraSans-Roman-74"/>
      <use x="346.09375" xlink:href="#BitstreamVeraSans-Roman-20"/>
      <use x="377.880859375" xlink:href="#BitstreamVeraSans-Roman-76"/>
      <use x="437.060546875" xlink:href="#BitstreamVeraSans-Roman-61"/>
      <use x="498.33984375" xlink:href="#BitstreamVeraSans-Roman-6c"/>
      <use x="526.123046875" xlink:href="#BitstreamVeraSans-Roman-75"/>
      <use x="589.501953125" xlink:href="#BitstreamVeraSans-Roman-65"/>
     </g>
    </g>
   </g>
   <g id="patch_3">
    <path d="
M72 43.2
L518.4 43.2" style="fill:none;stroke:#000000;"/>
   </g>
   <g id="patch_4">
    <path d="
M518.4 388.8
L518.4 43.2" style="fill:none;stroke:#000000;"/>
   </g>
   <g id="patch_5">
    <path d="
M72 388.8
L518.4 388.8" style="fill:none;stroke:#000000;"/>
   </g>
   <g id="patch_6">
    <path d="
M72 388.8
L72 43.2" style="fill:none;stroke:#000000;"/>
   </g>
   <g id="text_13">
    <!-- MusiContour v.0.3 - Contour plotter -->
    <defs>
     <path d="
M51.0781 45.1719
Q48.875 44.7812 46.8906 43.5781
Q44.9219 42.3906 43.5 39.3594
Q40.625 32.8125 37.5469 25.7031
Q34.4688 18.6094 31.1562 10.7969
Q30.1719 8.54688 29.0781 5.46875
Q27.9844 2.39062 27.0469 -0.4375
L23.25 -0.4375
Q18.6094 11.0312 14.7031 20.4844
Q10.7969 29.9375 6.59375 39.8438
Q5.60938 42.0938 3.4375 43.3281
Q1.26562 44.5781 -0.921875 44.9219
L-0.921875 48.1406
L21.3438 48.1406
L21.3438 44.7344
Q19.875 44.6719 17.6719 44.1094
Q15.4844 43.5625 15.4844 42.5781
Q15.4844 42.4375 15.7188 41.8281
Q15.9688 41.2188 16.2188 40.4375
Q18.2188 35.4531 21.875 26.5156
Q25.5312 17.5781 27.8281 12.1094
Q29.5938 16.3125 32.25 22.5625
Q34.9062 28.8125 37.9844 36.5312
Q38.4844 37.8438 38.9219 38.9844
Q39.3594 40.1406 39.3594 41.3125
Q39.3594 42.1406 38.5469 42.7969
Q37.75 43.4531 36.625 43.9531
Q35.5 44.4375 34.4219 44.6719
Q33.3438 44.9219 32.6719 45.0156
L32.6719 48.1406
L51.0781 48.1406
z
" id="Georgia-76"/>
     <path d="
M46.2969 11.3281
Q43.2656 5.5625 38.1875 2.14062
Q33.1094 -1.26562 26.5156 -1.26562
Q20.7031 -1.26562 16.3281 0.78125
Q11.9688 2.82812 9.125 6.34375
Q6.29688 9.85938 4.90625 14.5469
Q3.51562 19.2344 3.51562 24.4688
Q3.51562 29.1562 5 33.6719
Q6.5 38.1875 9.375 41.7969
Q12.1562 45.2656 16.2812 47.3906
Q20.4062 49.5156 25.5312 49.5156
Q30.8125 49.5156 34.5625 47.8438
Q38.3281 46.1875 40.6719 43.3125
Q42.9219 40.5781 44.0156 36.8594
Q45.125 33.1562 45.125 28.8125
L45.125 25.5938
L13.2344 25.5938
Q13.2344 20.8438 14.1406 16.9844
Q15.0469 13.1406 17 10.2031
Q18.8906 7.375 21.9688 5.73438
Q25.0469 4.10938 29.2969 4.10938
Q33.6406 4.10938 36.7812 6.125
Q39.9375 8.15625 42.875 13.4219
z

M35.5 29.6875
Q35.5 32.4219 35.0312 35.5469
Q34.5781 38.6719 33.5469 40.7656
Q32.4219 43.0156 30.4688 44.4219
Q28.5156 45.8438 25.4375 45.8438
Q20.3125 45.8438 16.9219 41.5781
Q13.5312 37.3125 13.2344 29.6875
z
" id="Georgia-65"/>
     <path d="
M33.25 2.09375
Q30.0781 0.78125 27.25 -0.125
Q24.4219 -1.03125 20.3125 -1.03125
Q14.2656 -1.03125 11.7969 2.01562
Q9.32812 5.07812 9.32812 10.6406
L9.32812 43.2656
L0.640625 43.2656
L0.640625 47.9531
L9.51562 47.9531
L9.51562 62.9375
L18.4062 62.9375
L18.4062 47.9531
L32.2344 47.9531
L32.2344 43.2656
L18.5 43.2656
L18.5 16.3594
Q18.5 13.3281 18.7188 11.2969
Q18.9531 9.28125 19.7812 7.76562
Q20.5625 6.34375 22.125 5.60938
Q23.6875 4.89062 26.3125 4.89062
Q27.5469 4.89062 29.9062 5.10938
Q32.2812 5.32812 33.25 5.67188
z
" id="Georgia-74"/>
     <path d="
M55.125 0.875
L39.4531 -0.203125
L38.7188 0.484375
L38.7188 6.59375
L38.4219 6.59375
Q37.25 5.375 35.7812 3.98438
Q34.3281 2.59375 32.4219 1.46875
Q30.2188 0.140625 28.1719 -0.53125
Q26.125 -1.21875 22.3594 -1.21875
Q15.9688 -1.21875 12.625 2.95312
Q9.28125 7.125 9.28125 15.0938
L9.28125 38.1406
Q9.28125 39.8906 8.60938 41.0781
Q7.95312 42.2812 6.6875 43.1719
Q5.8125 43.75 4.48438 44.0156
Q3.17188 44.2812 1.70312 44.3906
L1.70312 47.5625
L17.7812 48.7344
L18.5 48.0469
L18.5 14.5938
Q18.5 9.375 20.8438 6.73438
Q23.1875 4.10938 26.4688 4.10938
Q29.1562 4.10938 31.25 4.9375
Q33.3438 5.76562 34.7656 6.89062
Q36.0781 7.90625 37.0781 9.04688
Q38.0938 10.2031 38.625 11.1875
L38.625 38.4844
Q38.625 40.0938 37.9375 41.3281
Q37.25 42.5781 36.0312 43.4531
Q35.1562 44.0469 33.4219 44.1562
Q31.6875 44.2812 29.5469 44.3906
L29.5469 47.5625
L47.0156 48.7344
L47.75 48.0469
L47.75 9.8125
Q47.75 8.15625 48.4375 6.98438
Q49.125 5.8125 50.3438 4.98438
Q51.2188 4.4375 52.4375 4.26562
Q53.6562 4.10938 55.125 4.04688
z
" id="Georgia-75"/>
     <path d="
M40.375 41.9375
Q40.375 39.4531 39.1562 37.5156
Q37.9375 35.5938 35.4062 35.5938
Q32.6719 35.5938 31.2188 37
Q29.7812 38.4219 29.7812 40.1406
Q29.7812 41.2188 29.9531 42.0938
Q30.125 42.9688 30.2812 43.8438
Q27.9844 43.8438 24.9062 41.9844
Q21.8281 40.1406 19.6719 36.7188
L19.6719 8.6875
Q19.6719 6.98438 20.3281 5.90625
Q21 4.82812 22.4062 4.29688
Q23.6406 3.8125 25.5625 3.5625
Q27.4844 3.32812 28.9062 3.21875
L28.9062 0
L3.51562 0
L3.51562 3.21875
Q4.64062 3.32812 5.82812 3.42188
Q7.03125 3.51562 7.90625 3.8125
Q9.28125 4.25 9.9375 5.34375
Q10.5938 6.45312 10.5938 8.20312
L10.5938 37.9375
Q10.5938 39.4531 9.89062 40.9219
Q9.1875 42.3906 7.90625 43.2656
Q6.98438 43.8438 5.70312 44.1094
Q4.4375 44.3906 2.98438 44.4844
L2.98438 47.6562
L19 48.7344
L19.6719 48.0469
L19.6719 41.2656
L19.9219 41.2656
Q22.9531 45.2188 26.6562 47.2656
Q30.375 49.3125 33.4531 49.3125
Q36.5312 49.3125 38.4531 47.3125
Q40.375 45.3125 40.375 41.9375" id="Georgia-72"/>
     <path d="
M35.2969 23.5781
Q37.3125 21.8281 38.375 19.5312
Q39.4531 17.2344 39.4531 13.9219
Q39.4531 7.23438 34.4375 2.98438
Q29.4375 -1.26562 21.4844 -1.26562
Q17.2812 -1.26562 13.7344 0.25
Q10.2031 1.76562 8.6875 3.03125
L7.71875 -0.140625
L4.04688 -0.140625
L3.5625 16.6094
L6.9375 16.6094
Q7.32812 14.7031 8.59375 12.1562
Q9.85938 9.625 11.6719 7.5625
Q13.5781 5.42188 16.2344 3.95312
Q18.8906 2.48438 22.2188 2.48438
Q26.9062 2.48438 29.4375 4.60938
Q31.9844 6.73438 31.9844 10.6875
Q31.9844 12.75 31.1719 14.2344
Q30.375 15.7188 28.8125 16.8438
Q27.2031 17.9688 24.8594 18.875
Q22.5156 19.7812 19.625 20.6562
Q17.3281 21.3438 14.5156 22.5312
Q11.7188 23.7344 9.71875 25.3438
Q7.5625 27.0469 6.1875 29.5312
Q4.82812 32.0312 4.82812 35.4062
Q4.82812 41.3125 9.21875 45.4062
Q13.625 49.5156 21 49.5156
Q23.8281 49.5156 26.7812 48.7812
Q29.7344 48.0469 31.5938 47.0156
L32.7188 49.5625
L36.2344 49.5625
L36.9688 34.0781
L33.5938 34.0781
Q32.5625 39.2656 29.1719 42.5
Q25.7812 45.75 20.9062 45.75
Q16.8906 45.75 14.5938 43.75
Q12.3125 41.75 12.3125 38.9219
Q12.3125 36.7188 13.0625 35.25
Q13.8125 33.7969 15.3281 32.7656
Q16.7969 31.7812 19.0156 30.9219
Q21.2344 30.0781 24.5156 29
Q27.7344 27.9844 30.5938 26.6094
Q33.4531 25.25 35.2969 23.5781" id="Georgia-73"/>
     <path d="
M47.5156 42.4375
Q50.3906 39.0156 51.9688 34.5
Q53.5625 29.9844 53.5625 24.1719
Q53.5625 18.4531 51.6562 13.7344
Q49.75 9.03125 46.625 5.71875
Q43.3594 2.34375 39.3594 0.53125
Q35.3594 -1.26562 30.8594 -1.26562
Q26.5156 -1.26562 23.7344 -0.28125
Q20.9531 0.6875 19.1875 2
L18.7969 2
L18.7969 -12.4531
Q18.7969 -14.2031 19.4844 -15.375
Q20.1719 -16.5469 21.5781 -17.0938
Q22.75 -17.5312 24.9219 -17.9375
Q27.0938 -18.3594 28.5156 -18.4062
L28.5156 -21.6875
L1.60938 -21.6875
L1.60938 -18.4062
Q3.125 -18.3125 4.53125 -18.1562
Q5.95312 -18.0156 7.07812 -17.6719
Q8.54688 -17.1875 9.125 -15.9688
Q9.71875 -14.75 9.71875 -13.0938
L9.71875 38.1406
Q9.71875 39.5938 8.98438 40.9531
Q8.25 42.3281 7.07812 43.1719
Q6.20312 43.75 4.64062 44.0625
Q3.07812 44.3906 1.60938 44.4844
L1.60938 47.6562
L18.0156 48.7344
L18.7031 48.1406
L18.7031 42.7188
L19.0938 42.625
Q21.625 45.5625 25.3906 47.5156
Q29.1562 49.4688 32.8594 49.4688
Q37.3594 49.4688 41.0938 47.5625
Q44.8281 45.6562 47.5156 42.4375
M39.5469 7.8125
Q41.5 10.8438 42.4219 14.8438
Q43.3594 18.8438 43.3594 23.7812
Q43.3594 27.3906 42.5781 31.1406
Q41.7969 34.9062 40.1406 37.7031
Q38.4844 40.5312 35.7969 42.2812
Q33.1094 44.0469 29.3438 44.0469
Q25.7344 44.0469 23.1875 42.4531
Q20.6562 40.875 18.7969 38.6719
L18.7969 10.2031
Q19.2344 8.89062 20.2344 7.46875
Q21.2344 6.0625 22.4688 5.03125
Q23.9688 3.8125 25.7188 3.04688
Q27.4844 2.29688 30.0312 2.29688
Q32.7656 2.29688 35.2969 3.73438
Q37.8438 5.17188 39.5469 7.8125" id="Georgia-70"/>
     <path id="Georgia-20"/>
     <path d="
M50.1406 45.6094
Q53.2656 41.8438 54.7969 36.7812
Q56.3438 31.7344 56.3438 26.2188
Q56.3438 19.5781 54.4375 14.3281
Q52.5469 9.07812 49.2188 5.60938
Q45.7969 2.04688 41.1094 0.234375
Q36.4219 -1.5625 30.6719 -1.5625
Q24.3594 -1.5625 19.4219 0.53125
Q14.5 2.64062 11.4219 6.29688
Q8.20312 10.1094 6.60938 15.2031
Q5.03125 20.3125 5.03125 26.2188
Q5.03125 32.0312 6.5625 36.9062
Q8.10938 41.7969 11.375 45.75
Q14.5 49.5625 19.4219 51.75
Q24.3594 53.9531 30.7188 53.9531
Q37.4062 53.9531 42.1875 51.7031
Q46.9688 49.4688 50.1406 45.6094
M45.5625 26.2188
Q45.5625 37.8438 41.5781 44.2344
Q37.5938 50.6406 30.7656 50.6406
Q23.8281 50.6406 19.8281 44.2344
Q15.8281 37.8438 15.8281 26.2188
Q15.8281 15.1875 19.6562 8.46875
Q23.4844 1.76562 30.6719 1.76562
Q37.8438 1.76562 41.7031 8.46875
Q45.5625 15.1875 45.5625 26.2188" id="Georgia-30"/>
     <path d="
M88.1875 0
L57.5625 0
L57.5625 3.46875
Q59.2344 3.51562 61.8438 3.8125
Q64.4531 4.10938 65.4375 4.64062
Q66.9375 5.5625 67.6406 6.75
Q68.3594 7.95312 68.3594 9.76562
L68.3594 60.1562
L67.625 60.1562
L44 1.125
L41.5469 1.125
L19.0469 61.375
L18.4062 61.375
L18.4062 20.0156
Q18.4062 14.0156 19.1562 10.8906
Q19.9219 7.76562 21.4844 6.39062
Q22.5625 5.375 25.9219 4.4375
Q29.2969 3.51562 30.3281 3.46875
L30.3281 0
L2.34375 0
L2.34375 3.46875
Q4.54688 3.65625 6.95312 4.1875
Q9.375 4.73438 10.6875 5.8125
Q12.4062 7.17188 13.0312 10
Q13.6719 12.8438 13.6719 19.4844
L13.6719 54.9375
Q13.6719 58.0156 12.9375 59.9688
Q12.2031 61.9219 10.8438 63.1406
Q9.32812 64.4531 7.125 65.0781
Q4.9375 65.7188 2.78125 65.8281
L2.78125 69.2812
L26.4219 69.2812
L46.2344 17.3281
L63.1875 60.7969
Q64.1094 63.1875 64.7656 65.7969
Q65.4375 68.4062 65.4844 69.2812
L88.0938 69.2812
L88.0938 65.8281
Q86.7188 65.7656 84.5938 65.375
Q82.4688 64.9844 81.5 64.6562
Q79.8281 64.0625 79.2344 62.6875
Q78.6562 61.3281 78.6562 59.7188
L78.6562 9.76562
Q78.6562 8.0625 79.2344 6.89062
Q79.8281 5.71875 81.5 4.82812
Q82.375 4.34375 84.6094 3.92188
Q86.8594 3.51562 88.1875 3.46875
z
" id="Georgia-4d"/>
     <path d="
M26.9062 0
L3.60938 0
L3.60938 3.21875
Q4.73438 3.32812 5.92188 3.42188
Q7.125 3.51562 8.01562 3.8125
Q9.375 4.25 10.0312 5.34375
Q10.6875 6.45312 10.6875 8.20312
L10.6875 37.9375
Q10.6875 39.5 9.98438 40.7969
Q9.28125 42.0938 8.01562 42.9688
Q7.07812 43.5625 5.3125 43.9688
Q3.5625 44.3906 2.09375 44.4844
L2.09375 47.6562
L19.0938 48.7344
L19.7812 48.0469
L19.7812 8.79688
Q19.7812 7.07812 20.4375 5.95312
Q21.0938 4.82812 22.5156 4.29688
Q23.5781 3.85938 24.6094 3.59375
Q25.6406 3.32812 26.9062 3.21875
z

M20.75 67.7188
Q20.75 64.9375 18.9219 62.8594
Q17.0938 60.7969 14.4062 60.7969
Q11.9219 60.7969 10.0781 62.7656
Q8.25 64.75 8.25 67.2812
Q8.25 69.9688 10.0781 71.9688
Q11.9219 73.9688 14.4062 73.9688
Q17.1875 73.9688 18.9688 72.0938
Q20.75 70.2188 20.75 67.7188" id="Georgia-69"/>
     <path d="
M56.6875 0
L33.1094 0
L33.1094 3.21875
Q34.2344 3.32812 35.5781 3.42188
Q36.9219 3.51562 37.7969 3.8125
Q39.1562 4.25 39.8125 5.34375
Q40.4844 6.45312 40.4844 8.20312
L40.4844 32.9531
Q40.4844 38.0938 38.0625 40.875
Q35.6406 43.6562 32.1719 43.6562
Q29.5938 43.6562 27.4375 42.8438
Q25.2969 42.0469 23.6406 40.875
Q22.0156 39.75 21.0625 38.4531
Q20.125 37.1562 19.6719 36.375
L19.6719 8.6875
Q19.6719 7.03125 20.3594 5.95312
Q21.0469 4.89062 22.4062 4.29688
Q23.4375 3.8125 24.625 3.5625
Q25.8281 3.32812 27.0938 3.21875
L27.0938 0
L3.51562 0
L3.51562 3.21875
Q4.64062 3.32812 5.82812 3.42188
Q7.03125 3.51562 7.90625 3.8125
Q9.28125 4.25 9.9375 5.34375
Q10.5938 6.45312 10.5938 8.20312
L10.5938 37.9375
Q10.5938 39.5938 9.89062 40.9844
Q9.1875 42.3906 7.90625 43.2656
Q6.98438 43.8438 5.70312 44.1094
Q4.4375 44.3906 2.98438 44.4844
L2.98438 47.6562
L19 48.7344
L19.6719 48.0469
L19.6719 41.2656
L19.9219 41.2656
Q21.0938 42.4375 22.8438 44.0625
Q24.6094 45.7031 26.1719 46.7344
Q27.9844 47.9062 30.4688 48.6875
Q32.9531 49.4688 36.0781 49.4688
Q43.0156 49.4688 46.3594 45.1406
Q49.7031 40.8281 49.7031 33.6406
L49.7031 8.59375
Q49.7031 6.89062 50.2812 5.82812
Q50.875 4.78125 52.2969 4.20312
Q53.4688 3.71875 54.3125 3.51562
Q55.1719 3.32812 56.6875 3.21875
z
" id="Georgia-6e"/>
     <path d="
M50.4375 24.5625
Q50.4375 19.4844 48.8281 14.5781
Q47.2188 9.67188 44.2344 6.25
Q40.875 2.34375 36.4219 0.4375
Q31.9844 -1.46875 26.4688 -1.46875
Q21.875 -1.46875 17.7188 0.265625
Q13.5781 2 10.3594 5.32812
Q7.17188 8.59375 5.29688 13.2969
Q3.42188 18.0156 3.42188 23.875
Q3.42188 35.1562 9.98438 42.3281
Q16.5469 49.5156 27.2031 49.5156
Q37.3125 49.5156 43.875 42.7031
Q50.4375 35.8906 50.4375 24.5625
M40.3281 24.4688
Q40.3281 28.125 39.5938 32.2031
Q38.875 36.2812 37.4062 39.1094
Q35.8438 42.1406 33.2969 43.9688
Q30.7656 45.7969 27.0938 45.7969
Q23.3438 45.7969 20.6719 43.9375
Q18.0156 42.0938 16.3594 38.875
Q14.7969 35.8906 14.1562 32.0781
Q13.5312 28.2656 13.5312 24.7031
Q13.5312 20.0156 14.2812 16.0312
Q15.0469 12.0625 16.7031 8.9375
Q18.3594 5.8125 20.875 4.03125
Q23.3906 2.25 27.0938 2.25
Q33.2031 2.25 36.7656 8.15625
Q40.3281 14.0625 40.3281 24.4688" id="Georgia-6f"/>
     <path d="
M20.2656 5.60938
Q20.2656 2.875 18.2812 0.9375
Q16.3125 -0.984375 13.5781 -0.984375
Q10.8438 -0.984375 8.85938 0.9375
Q6.89062 2.875 6.89062 5.60938
Q6.89062 8.34375 8.85938 10.3281
Q10.8438 12.3125 13.5781 12.3125
Q16.3125 12.3125 18.2812 10.3281
Q20.2656 8.34375 20.2656 5.60938" id="Georgia-2e"/>
     <path d="
M26.0781 0
L2.59375 0
L2.59375 3.21875
Q3.71875 3.32812 4.98438 3.4375
Q6.25 3.5625 7.07812 3.8125
Q8.45312 4.25 9.125 5.34375
Q9.8125 6.45312 9.8125 8.20312
L9.8125 63.9688
Q9.8125 65.7188 9.04688 67.25
Q8.29688 68.7969 7.07812 69.6719
Q6.20312 70.2656 3.85938 70.75
Q1.51562 71.2344 0.09375 71.3438
L0.09375 74.4688
L18.2188 75.5938
L18.8906 74.8594
L18.8906 8.79688
Q18.8906 7.07812 19.5312 5.98438
Q20.1719 4.89062 21.5781 4.29688
Q22.6562 3.8125 23.7031 3.5625
Q24.75 3.32812 26.0781 3.21875
z
" id="Georgia-6c"/>
     <path d="
M23.7812 -17.8281
Q19.1875 -17.8281 15.375 -16.6719
Q11.5781 -15.5312 8.84375 -13.5781
Q6.10938 -11.625 4.60938 -9.07812
Q3.125 -6.54688 3.125 -3.85938
Q3.125 -1.46875 4.29688 0.453125
Q5.46875 2.39062 8.0625 2.39062
Q10.9844 2.39062 12.5156 0.953125
Q14.0625 -0.484375 14.0625 -2.34375
Q14.0625 -3.90625 13.5469 -6.29688
Q13.0312 -8.6875 12.75 -9.71875
Q13.0938 -10.1562 13.9844 -10.8906
Q14.8906 -11.625 16.2188 -12.2031
Q17.7812 -12.9375 19.4844 -13.375
Q21.1875 -13.8125 24.3125 -13.8125
Q27.25 -13.8125 29.9531 -12.8281
Q32.6719 -11.8594 34.7188 -9.71875
Q36.8594 -7.46875 38.0625 -4.46875
Q39.2656 -1.46875 39.2656 3.42188
Q39.2656 6.0625 38.7031 8.64062
Q38.1406 11.2344 36.625 13.1406
Q35.1094 15.0469 32.5 16.0938
Q29.8906 17.1406 25.875 17.1406
L19.4844 17.1406
L19.4844 22.75
L23.7344 22.75
Q30.4688 22.75 33.4375 26.4531
Q36.4219 30.1719 36.4219 37.6406
Q36.4219 43.75 33.5469 46.8438
Q30.6719 49.9531 25.3906 49.9531
Q22.8594 49.9531 21.2188 49.3438
Q19.5781 48.7344 18.5625 48.1406
Q17.3281 47.4688 16.5469 46.625
Q15.7656 45.7969 15.375 45.4062
Q15.7188 43.8438 16.2031 41.5781
Q16.7031 39.3125 16.7031 37.25
Q16.7031 35.4531 15.1562 34
Q13.625 32.5625 10.6406 32.5625
Q8.0625 32.5625 6.85938 34.4219
Q5.67188 36.2812 5.67188 38.7188
Q5.67188 41.2656 7.07812 43.8906
Q8.5 46.5312 11.2812 48.8281
Q14.0625 51.125 18.0625 52.5312
Q22.0781 53.9531 27.2969 53.9531
Q33.2969 53.9531 37.2188 52.1719
Q41.1562 50.3906 43.4062 47.8594
Q45.6094 45.3594 46.4375 42.625
Q47.2656 39.8906 47.2656 37.9375
Q47.2656 35.5 46.5781 33.0312
Q45.9062 30.5625 44.3438 28.4688
Q42.625 26.1719 39.8125 24.2812
Q37.0156 22.4062 32.7656 21.2344
L32.7656 20.4531
Q35.5 20.2188 38.5938 19.2344
Q41.7031 18.2656 44.1875 16.3594
Q46.7812 14.3594 48.4375 11.2031
Q50.0938 8.0625 50.0938 3.21875
Q50.0938 -6.15625 42.5781 -11.9844
Q35.0625 -17.8281 23.7812 -17.8281" id="Georgia-33"/>
     <path d="
M35.2969 -1.60938
Q29.1094 -1.60938 23.4062 0.828125
Q17.7188 3.26562 13.3281 7.85938
Q8.98438 12.4531 6.39062 19.0625
Q3.8125 25.6875 3.8125 33.9844
Q3.8125 42.2812 6.34375 49.0469
Q8.89062 55.8125 13.375 60.6875
Q17.8281 65.5312 23.875 68.1562
Q29.9375 70.7969 36.8125 70.7969
Q41.9375 70.7969 46.0938 69.5312
Q50.25 68.2656 54 65.9688
L56 69.2812
L59.9062 69.2812
L60.3594 44.5781
L56.3438 44.5781
Q55.5625 48.1875 54 52.4062
Q52.4375 56.6406 50.3438 59.5781
Q48 62.8906 44.7656 64.7656
Q41.5469 66.6562 37.4062 66.6562
Q32.6719 66.6562 28.5938 64.5469
Q24.5156 62.4531 21.5312 58.3438
Q18.7031 54.3906 17.0938 48.2812
Q15.4844 42.1875 15.4844 34.6719
Q15.4844 28.0312 17.1562 22.4844
Q18.8438 16.9375 21.9688 12.75
Q25.0938 8.59375 29.3594 6.25
Q33.6406 3.90625 38.9219 3.90625
Q42.875 3.90625 46.1875 5.14062
Q49.5156 6.39062 51.9531 8.45312
Q54.3906 10.5938 56.25 13.3281
Q58.1094 16.0625 59.2812 19.2812
L62.9375 17.5312
Q58.7344 7.23438 51.7969 2.8125
Q44.875 -1.60938 35.2969 -1.60938" id="Georgia-43"/>
     <path d="
M33.25 22.7031
L4.15625 22.7031
L4.15625 30.375
L33.25 30.375
z
" id="Georgia-2d"/>
    </defs>
    <g transform="translate(201.767335937 38.2)scale(0.11662 -0.11662)">
     <use xlink:href="#Georgia-4d"/>
     <use x="92.724609375" xlink:href="#Georgia-75"/>
     <use x="150.244140625" xlink:href="#Georgia-73"/>
     <use x="193.45703125" xlink:href="#Georgia-69"/>
     <use x="222.75390625" xlink:href="#Georgia-43"/>
     <use x="286.962890625" xlink:href="#Georgia-6f"/>
     <use x="340.869140625" xlink:href="#Georgia-6e"/>
     <use x="399.951171875" xlink:href="#Georgia-74"/>
     <use x="434.47265625" xlink:href="#Georgia-6f"/>
     <use x="488.37890625" xlink:href="#Georgia-75"/>
     <use x="545.8984375" xlink:href="#Georgia-72"/>
     <use x="586.865234375" xlink:href="#Georgia-20"/>
     <use x="610.986328125" xlink:href="#Georgia-76"/>
     <use x="660.64453125" xlink:href="#Georgia-2e"/>
     <use x="687.59765625" xlink:href="#Georgia-30"/>
     <use x="748.974609375" xlink:href="#Georgia-2e"/>
     <use x="775.927734375" xlink:href="#Georgia-33"/>
     <use x="831.103515625" xlink:href="#Georgia-20"/>
     <use x="855.224609375" xlink:href="#Georgia-2d"/>
     <use x="892.626953125" xlink:href="#Georgia-20"/>
     <use x="916.748046875" xlink:href="#Georgia-43"/>
     <use x="980.95703125" xlink:href="#Georgia-6f"/>
     <use x="1034.86328125" xlink:href="#Georgia-6e"/>
     <use x="1093.9453125" xlink:href="#Georgia-74"/>
     <use x="1128.46679688" xlink:href="#Georgia-6f"/>
     <use x="1182.37304688" xlink:href="#Georgia-75"/>
     <use x="1239.89257812" xlink:href="#Georgia-72"/>
     <use x="1280.859375" xlink:href="#Georgia-20"/>
     <use x="1304.98046875" xlink:href="#Georgia-70"/>
     <use x="1362.109375" xlink:href="#Georgia-6c"/>
     <use x="1390.72265625" xlink:href="#Georgia-6f"/>
     <use x="1444.62890625" xlink:href="#Georgia-74"/>
     <use x="1479.15039062" xlink:href="#Georgia-74"/>
     <use x="1513.671875" xlink:href="#Georgia-65"/>
     <use x="1562.01171875" xlink:href="#Georgia-72"/>
    </g>
   </g>
   <g id="legend_1">
    <g id="patch_7">
     <path d="
M80.4 78.0442
L252.734 78.0442
L252.734 51.6
L80.4 51.6
L80.4 78.0442
z
" style="fill:#ffffff;stroke:#000000;"/>
    </g>
    <g id="line2d_32">
     <path d="
M92.16 65.2054
L115.68 65.2054" style="fill:none;stroke:#000000;stroke-width:3;"/>
    </g>
    <g id="line2d_33">
     <defs>
      <path d="
M0 3
C0.795609 3 1.55874 2.6839 2.12132 2.12132
C2.6839 1.55874 3 0.795609 3 0
C3 -0.795609 2.6839 -1.55874 2.12132 -2.12132
C1.55874 -2.6839 0.795609 -3 0 -3
C-0.795609 -3 -1.55874 -2.6839 -2.12132 -2.12132
C-2.6839 -1.55874 -3 -0.795609 -3 0
C-3 0.795609 -2.6839 1.55874 -2.12132 2.12132
C-1.55874 2.6839 -0.795609 3 0 3
z
" id="m3c29838ab0"/>
     </defs>
     <g>
      <use style="stroke:#000000;stroke-linecap:butt;stroke-width:0.5;" x="92.16" xlink:href="#m3c29838ab0" y="65.205375"/>
      <use style="stroke:#000000;stroke-linecap:butt;stroke-width:0.5;" x="115.68" xlink:href="#m3c29838ab0" y="65.205375"/>
     </g>
    </g>
    <g id="text_14">
     <!-- &lt; 3 0 1 4 2 &gt;  -->
     <defs>
      <path d="
M73.1875 49.2188
L22.7969 31.2969
L73.1875 13.4844
L73.1875 4.59375
L10.5938 27.2969
L10.5938 35.4062
L73.1875 58.1094
z
" id="BitstreamVeraSans-Roman-3c"/>
      <path d="
M10.5938 49.2188
L10.5938 58.1094
L73.1875 35.4062
L73.1875 27.2969
L10.5938 4.59375
L10.5938 13.4844
L60.8906 31.2969
z
" id="BitstreamVeraSans-Roman-3e"/>
     </defs>
     <g transform="translate(134.16 71.085375)scale(0.168 -0.168)">
      <use xlink:href="#BitstreamVeraSans-Roman-3c"/>
      <use x="83.7890625" xlink:href="#BitstreamVeraSans-Roman-20"/>
      <use x="115.576171875" xlink:href="#BitstreamVeraSans-Roman-33"/>
      <use x="179.19921875" xlink:href="#BitstreamVeraSans-Roman-20"/>
      <use x="210.986328125" xlink:href="#BitstreamVeraSans-Roman-30"/>
      <use x="274.609375" xlink:href="#BitstreamVeraSans-Roman-20"/>
      <use x="306.396484375" xlink:href="#BitstreamVeraSans-Roman-31"/>
      <use x="370.01953125" xlink:href="#BitstreamVeraSans-Roman-20"/>
      <use x="401.806640625" xlink:href="#BitstreamVeraSans-Roman-34"/>
      <use x="465.4296875" xlink:href="#BitstreamVeraSans-Roman-20"/>
      <use x="497.216796875" xlink:href="#BitstreamVeraSans-Roman-32"/>
      <use x="560.83984375" xlink:href="#BitstreamVeraSans-Roman-20"/>
      <use x="592.626953125" xlink:href="#BitstreamVeraSans-Roman-3e"/>
      <use x="676.416015625" xlink:href="#BitstreamVeraSans-Roman-20"/>
     </g>
    </g>
   </g>
  </g>
 </g>
 <defs>
  <clipPath id="p7ff5b81e1d">
   <rect height="345.6" width="446.4" x="72.0" y="43.2"/>
  </clipPath>
 </defs>
</svg>
